<svg xmlns="http://www.w3.org/2000/svg" xmlns:xlink="http://www.w3.org/1999/xlink" width="500" zoomAndPan="magnify" viewBox="0 0 375 374.999991" height="500" preserveAspectRatio="xMidYMid meet" version="1.0"><defs><g/><clipPath id="b28f8f668c"><path d="M 148.148438 180 L 226.898438 180 L 226.898438 222.015625 L 148.148438 222.015625 Z M 148.148438 180 " clip-rule="nonzero"/></clipPath><clipPath id="8ff5f66f60"><path d="M 158 89.265625 L 217 89.265625 L 217 175 L 158 175 Z M 158 89.265625 " clip-rule="nonzero"/></clipPath><clipPath id="c18d6a94f4"><path d="M 184.683594 160.964844 C 185.726562 164.265625 188.03125 166.042969 191.601562 166.3125 C 199.902344 164.570312 202.160156 156.789062 198.390625 142.960938 C 206.773438 154.296875 206.246094 164.699219 196.824219 174.140625 C 215.1875 163.820312 220.808594 151.722656 213.667969 137.859375 C 206.574219 124.097656 172.273438 108.796875 198.320312 89.253906 C 176.242188 97.785156 169.019531 107.835938 176.652344 119.394531 C 184.085938 130.558594 184.566406 136.652344 178.09375 137.660156 C 166.316406 138.652344 162.792969 130.3125 167.523438 112.609375 C 151.296875 147.546875 156.695312 167.808594 183.710938 173.414062 C 183.710938 173.414062 185.691406 173.519531 189.648438 173.742188 C 184.460938 170.335938 182.808594 166.078125 184.683594 160.953125 Z M 184.683594 160.964844 " clip-rule="evenodd"/></clipPath><linearGradient x1="52.534074" gradientTransform="matrix(1.170609, 0, 0, 1.170016, 148.160096, 89.267368)" y1="-1.991726" x2="35.515185" gradientUnits="userSpaceOnUse" y2="79.405336" id="69d74506e1"><stop stop-opacity="1" stop-color="rgb(92.89856%, 19.599915%, 21.598816%)" offset="0"/><stop stop-opacity="1" stop-color="rgb(92.89856%, 19.599915%, 21.598816%)" offset="0.146141"/><stop stop-opacity="1" stop-color="rgb(92.89856%, 19.599915%, 21.598816%)" offset="0.25"/><stop stop-opacity="1" stop-color="rgb(92.89856%, 19.599915%, 21.598816%)" offset="0.375"/><stop stop-opacity="1" stop-color="rgb(92.89856%, 19.599915%, 21.598816%)" offset="0.390625"/><stop stop-opacity="1" stop-color="rgb(92.915344%, 19.775391%, 21.592712%)" offset="0.398437"/><stop stop-opacity="1" stop-color="rgb(92.967224%, 20.300293%, 21.572876%)" offset="0.402344"/><stop stop-opacity="1" stop-color="rgb(93.000793%, 20.649719%, 21.560669%)" offset="0.40625"/><stop stop-opacity="1" stop-color="rgb(93.034363%, 20.999146%, 21.546936%)" offset="0.410156"/><stop stop-opacity="1" stop-color="rgb(93.069458%, 21.348572%, 21.534729%)" offset="0.414062"/><stop stop-opacity="1" stop-color="rgb(93.103027%, 21.697998%, 21.522522%)" offset="0.417969"/><stop stop-opacity="1" stop-color="rgb(93.136597%, 22.047424%, 21.510315%)" offset="0.421875"/><stop stop-opacity="1" stop-color="rgb(93.170166%, 22.396851%, 21.496582%)" offset="0.425781"/><stop stop-opacity="1" stop-color="rgb(93.205261%, 22.746277%, 21.484375%)" offset="0.429687"/><stop stop-opacity="1" stop-color="rgb(93.238831%, 23.095703%, 21.470642%)" offset="0.433594"/><stop stop-opacity="1" stop-color="rgb(93.273926%, 23.445129%, 21.458435%)" offset="0.4375"/><stop stop-opacity="1" stop-color="rgb(93.307495%, 23.794556%, 21.446228%)" offset="0.441406"/><stop stop-opacity="1" stop-color="rgb(93.341064%, 24.143982%, 21.434021%)" offset="0.445312"/><stop stop-opacity="1" stop-color="rgb(93.374634%, 24.493408%, 21.420288%)" offset="0.449219"/><stop stop-opacity="1" stop-color="rgb(93.409729%, 24.842834%, 21.408081%)" offset="0.453125"/><stop stop-opacity="1" stop-color="rgb(93.443298%, 25.192261%, 21.394348%)" offset="0.457031"/><stop stop-opacity="1" stop-color="rgb(93.476868%, 25.541687%, 21.382141%)" offset="0.460938"/><stop stop-opacity="1" stop-color="rgb(93.510437%, 25.891113%, 21.369934%)" offset="0.464844"/><stop stop-opacity="1" stop-color="rgb(93.545532%, 26.24054%, 21.357727%)" offset="0.46875"/><stop stop-opacity="1" stop-color="rgb(93.579102%, 26.58844%, 21.343994%)" offset="0.472656"/><stop stop-opacity="1" stop-color="rgb(93.612671%, 26.937866%, 21.331787%)" offset="0.476562"/><stop stop-opacity="1" stop-color="rgb(93.64624%, 27.287292%, 21.318054%)" offset="0.480469"/><stop stop-opacity="1" stop-color="rgb(93.681335%, 27.636719%, 21.305847%)" offset="0.484375"/><stop stop-opacity="1" stop-color="rgb(93.714905%, 27.986145%, 21.292114%)" offset="0.488281"/><stop stop-opacity="1" stop-color="rgb(93.748474%, 28.335571%, 21.279907%)" offset="0.492187"/><stop stop-opacity="1" stop-color="rgb(93.782043%, 28.684998%, 21.2677%)" offset="0.496094"/><stop stop-opacity="1" stop-color="rgb(93.817139%, 29.034424%, 21.255493%)" offset="0.5"/><stop stop-opacity="1" stop-color="rgb(93.850708%, 29.38385%, 21.24176%)" offset="0.503906"/><stop stop-opacity="1" stop-color="rgb(93.884277%, 29.733276%, 21.229553%)" offset="0.507812"/><stop stop-opacity="1" stop-color="rgb(93.917847%, 30.082703%, 21.21582%)" offset="0.511719"/><stop stop-opacity="1" stop-color="rgb(93.952942%, 30.432129%, 21.203613%)" offset="0.515625"/><stop stop-opacity="1" stop-color="rgb(93.986511%, 30.781555%, 21.191406%)" offset="0.519531"/><stop stop-opacity="1" stop-color="rgb(94.021606%, 31.130981%, 21.179199%)" offset="0.523437"/><stop stop-opacity="1" stop-color="rgb(94.055176%, 31.480408%, 21.165466%)" offset="0.527344"/><stop stop-opacity="1" stop-color="rgb(94.088745%, 31.829834%, 21.153259%)" offset="0.53125"/><stop stop-opacity="1" stop-color="rgb(94.122314%, 32.17926%, 21.139526%)" offset="0.535156"/><stop stop-opacity="1" stop-color="rgb(94.15741%, 32.528687%, 21.127319%)" offset="0.539062"/><stop stop-opacity="1" stop-color="rgb(94.190979%, 32.878113%, 21.115112%)" offset="0.542969"/><stop stop-opacity="1" stop-color="rgb(94.224548%, 33.227539%, 21.102905%)" offset="0.546875"/><stop stop-opacity="1" stop-color="rgb(94.258118%, 33.576965%, 21.089172%)" offset="0.550781"/><stop stop-opacity="1" stop-color="rgb(94.293213%, 33.926392%, 21.076965%)" offset="0.554688"/><stop stop-opacity="1" stop-color="rgb(94.326782%, 34.275818%, 21.063232%)" offset="0.558594"/><stop stop-opacity="1" stop-color="rgb(94.360352%, 34.625244%, 21.051025%)" offset="0.5625"/><stop stop-opacity="1" stop-color="rgb(94.393921%, 34.97467%, 21.037292%)" offset="0.566406"/><stop stop-opacity="1" stop-color="rgb(94.429016%, 35.324097%, 21.025085%)" offset="0.570312"/><stop stop-opacity="1" stop-color="rgb(94.462585%, 35.673523%, 21.012878%)" offset="0.574219"/><stop stop-opacity="1" stop-color="rgb(94.496155%, 36.022949%, 21.000671%)" offset="0.578125"/><stop stop-opacity="1" stop-color="rgb(94.529724%, 36.372375%, 20.986938%)" offset="0.582031"/><stop stop-opacity="1" stop-color="rgb(94.564819%, 36.721802%, 20.974731%)" offset="0.585938"/><stop stop-opacity="1" stop-color="rgb(94.598389%, 37.071228%, 20.960999%)" offset="0.589844"/><stop stop-opacity="1" stop-color="rgb(94.631958%, 37.420654%, 20.948792%)" offset="0.59375"/><stop stop-opacity="1" stop-color="rgb(94.665527%, 37.770081%, 20.936584%)" offset="0.597656"/><stop stop-opacity="1" stop-color="rgb(94.700623%, 38.119507%, 20.924377%)" offset="0.601562"/><stop stop-opacity="1" stop-color="rgb(94.734192%, 38.468933%, 20.910645%)" offset="0.605469"/><stop stop-opacity="1" stop-color="rgb(94.769287%, 38.818359%, 20.898438%)" offset="0.609375"/><stop stop-opacity="1" stop-color="rgb(94.802856%, 39.167786%, 20.884705%)" offset="0.613281"/><stop stop-opacity="1" stop-color="rgb(94.836426%, 39.517212%, 20.872498%)" offset="0.617187"/><stop stop-opacity="1" stop-color="rgb(94.869995%, 39.866638%, 20.858765%)" offset="0.621094"/><stop stop-opacity="1" stop-color="rgb(94.90509%, 40.216064%, 20.846558%)" offset="0.625"/><stop stop-opacity="1" stop-color="rgb(94.93866%, 40.565491%, 20.834351%)" offset="0.628906"/><stop stop-opacity="1" stop-color="rgb(94.972229%, 40.914917%, 20.822144%)" offset="0.632812"/><stop stop-opacity="1" stop-color="rgb(95.005798%, 41.264343%, 20.808411%)" offset="0.636719"/><stop stop-opacity="1" stop-color="rgb(95.040894%, 41.61377%, 20.796204%)" offset="0.640625"/><stop stop-opacity="1" stop-color="rgb(95.074463%, 41.963196%, 20.782471%)" offset="0.644531"/><stop stop-opacity="1" stop-color="rgb(95.108032%, 42.312622%, 20.770264%)" offset="0.648437"/><stop stop-opacity="1" stop-color="rgb(95.141602%, 42.660522%, 20.758057%)" offset="0.652344"/><stop stop-opacity="1" stop-color="rgb(95.176697%, 43.009949%, 20.74585%)" offset="0.65625"/><stop stop-opacity="1" stop-color="rgb(95.210266%, 43.359375%, 20.732117%)" offset="0.660156"/><stop stop-opacity="1" stop-color="rgb(95.243835%, 43.708801%, 20.71991%)" offset="0.664062"/><stop stop-opacity="1" stop-color="rgb(95.277405%, 44.058228%, 20.706177%)" offset="0.667969"/><stop stop-opacity="1" stop-color="rgb(95.3125%, 44.407654%, 20.69397%)" offset="0.671875"/><stop stop-opacity="1" stop-color="rgb(95.346069%, 44.75708%, 20.681763%)" offset="0.675781"/><stop stop-opacity="1" stop-color="rgb(95.379639%, 45.106506%, 20.669556%)" offset="0.679688"/><stop stop-opacity="1" stop-color="rgb(95.413208%, 45.455933%, 20.655823%)" offset="0.683594"/><stop stop-opacity="1" stop-color="rgb(95.448303%, 45.805359%, 20.643616%)" offset="0.6875"/><stop stop-opacity="1" stop-color="rgb(95.481873%, 46.154785%, 20.629883%)" offset="0.691406"/><stop stop-opacity="1" stop-color="rgb(95.515442%, 46.504211%, 20.617676%)" offset="0.695312"/><stop stop-opacity="1" stop-color="rgb(95.549011%, 46.853638%, 20.603943%)" offset="0.699219"/><stop stop-opacity="1" stop-color="rgb(95.584106%, 47.203064%, 20.591736%)" offset="0.703125"/><stop stop-opacity="1" stop-color="rgb(95.617676%, 47.55249%, 20.579529%)" offset="0.707031"/><stop stop-opacity="1" stop-color="rgb(95.652771%, 47.901917%, 20.567322%)" offset="0.710937"/><stop stop-opacity="1" stop-color="rgb(95.68634%, 48.251343%, 20.553589%)" offset="0.714844"/><stop stop-opacity="1" stop-color="rgb(95.71991%, 48.600769%, 20.541382%)" offset="0.71875"/><stop stop-opacity="1" stop-color="rgb(95.753479%, 48.950195%, 20.527649%)" offset="0.722656"/><stop stop-opacity="1" stop-color="rgb(95.788574%, 49.299622%, 20.515442%)" offset="0.726562"/><stop stop-opacity="1" stop-color="rgb(95.822144%, 49.649048%, 20.503235%)" offset="0.730469"/><stop stop-opacity="1" stop-color="rgb(95.855713%, 49.998474%, 20.491028%)" offset="0.734375"/><stop stop-opacity="1" stop-color="rgb(95.889282%, 50.3479%, 20.477295%)" offset="0.738281"/><stop stop-opacity="1" stop-color="rgb(95.924377%, 50.697327%, 20.465088%)" offset="0.742187"/><stop stop-opacity="1" stop-color="rgb(95.957947%, 51.046753%, 20.451355%)" offset="0.746094"/><stop stop-opacity="1" stop-color="rgb(95.991516%, 51.396179%, 20.439148%)" offset="0.75"/><stop stop-opacity="1" stop-color="rgb(96.025085%, 51.745605%, 20.426941%)" offset="0.753906"/><stop stop-opacity="1" stop-color="rgb(96.060181%, 52.095032%, 20.414734%)" offset="0.757812"/><stop stop-opacity="1" stop-color="rgb(96.080017%, 52.296448%, 20.407104%)" offset="0.761719"/><stop stop-opacity="1" stop-color="rgb(96.099854%, 52.49939%, 20.399475%)" offset="0.765625"/><stop stop-opacity="1" stop-color="rgb(96.099854%, 52.49939%, 20.399475%)" offset="0.78125"/><stop stop-opacity="1" stop-color="rgb(96.099854%, 52.49939%, 20.399475%)" offset="0.8125"/><stop stop-opacity="1" stop-color="rgb(96.099854%, 52.49939%, 20.399475%)" offset="0.853859"/><stop stop-opacity="1" stop-color="rgb(96.099854%, 52.49939%, 20.399475%)" offset="0.875"/><stop stop-opacity="1" stop-color="rgb(96.099854%, 52.49939%, 20.399475%)" offset="1"/></linearGradient></defs><g clip-path="url(#b28f8f668c)"><path fill="#373435" d="M 195.875 203.460938 C 199.996094 202.335938 206.082031 194.816406 208.304688 190.367188 C 209.230469 188.519531 209.992188 185.863281 210.976562 184.167969 L 218.46875 184.109375 C 215.949219 191.269531 204.992188 202.957031 195.875 203.472656 Z M 203.484375 204.816406 L 211.210938 213.546875 C 214.582031 216.800781 220.128906 225.363281 220.234375 220.308594 L 218.582031 216.648438 C 218.582031 216.648438 218.105469 215.792969 217.15625 214.085938 L 216.898438 214.085938 C 216.570312 213.230469 216.160156 212.375 215.714844 211.511719 C 213.949219 208.070312 211.5 204.539062 210.355469 201.34375 C 221.769531 194.277344 227.644531 183.652344 226.8125 181.523438 C 225.234375 180.46875 212.777344 180.972656 210.132812 180.972656 L 151.847656 180.960938 C 148.675781 180.914062 145.761719 180.386719 151.214844 188.167969 C 155.816406 194.746094 157.980469 196.96875 165.144531 201.507812 L 159.375 212.46875 L 158.53125 214.0625 L 158.425781 214.0625 C 156.988281 216.507812 156.261719 217.734375 156.261719 217.734375 C 155.523438 219.082031 154.808594 220.496094 155.3125 221.398438 C 156.414062 223.351562 158.34375 220.050781 158.871094 219.429688 L 165.929688 211.699219 C 168.878906 207.929688 170.554688 205.882812 171.886719 204.863281 C 174.242188 205.753906 176.734375 206.46875 179.191406 206.949219 C 181.511719 207.390625 183.757812 207.648438 185.925781 207.753906 L 187.398438 219.339844 C 189.636719 219.058594 189.507812 219.617188 189.855469 216.648438 L 190.863281 207.695312 C 195.476562 207.378906 199.691406 206.328125 203.472656 204.816406 Z M 156.730469 184.238281 L 164.1875 184.074219 C 165.601562 186.449219 168.410156 195.667969 174.089844 200.136719 C 175.199219 201.015625 177.765625 203.015625 179.296875 203.472656 C 171.082031 203.003906 160.40625 193.410156 156.71875 184.238281 Z M 156.730469 184.238281 " fill-opacity="1" fill-rule="evenodd"/></g><g clip-path="url(#8ff5f66f60)"><g clip-path="url(#c18d6a94f4)"><path fill="url(#69d74506e1)" d="M 151.296875 89.265625 L 151.296875 174.140625 L 220.808594 174.140625 L 220.808594 89.265625 Z M 151.296875 89.265625 " fill-rule="nonzero"/></g></g><g fill="#373435" fill-opacity="1"><g transform="translate(149.852916, 258.768534)"><g><path d="M 19.949219 -12.660156 C 22.386719 -12.660156 24.234375 -14.410156 24.234375 -16.78125 C 24.234375 -20.605469 19.617188 -23.640625 13.75 -23.671875 C 6.363281 -23.738281 1.417969 -18.925781 1.351562 -11.640625 C 1.320312 -4.320312 6.230469 0.625 13.519531 0.625 C 19.355469 0.625 24.234375 -2.503906 24.234375 -6.265625 C 24.234375 -8.574219 22.355469 -10.386719 19.949219 -10.386719 C 17.707031 -10.386719 16.585938 -8.738281 16.585938 -8.738281 C 18.101562 -6.296875 16.75 -2.539062 14.175781 -2.539062 C 11.210938 -2.539062 8.277344 -7.582031 8.308594 -13.222656 C 8.339844 -17.605469 10.15625 -20.507812 13.054688 -20.507812 C 15.332031 -20.507812 17.179688 -18.660156 17.179688 -16.386719 C 17.179688 -15.628906 16.945312 -14.9375 16.585938 -14.308594 C 17.410156 -13.253906 18.5625 -12.660156 19.949219 -12.660156 Z M 19.949219 -12.660156 "/></g></g></g><g fill="#373435" fill-opacity="1"><g transform="translate(175.734511, 258.768534)"><g><path d="M 9.59375 -18.59375 C 9.59375 -19.75 10.816406 -20.507812 12.660156 -20.507812 C 14.9375 -20.507812 16.289062 -19.417969 16.289062 -17.574219 C 16.289062 -16.78125 16.023438 -15.859375 15.527344 -14.96875 C 16.320312 -13.945312 17.640625 -13.320312 18.992188 -13.320312 C 21.363281 -13.320312 23.179688 -15.101562 23.179688 -17.242188 C 23.179688 -20.707031 18.398438 -23.671875 13.023438 -23.671875 C 7.285156 -23.671875 2.273438 -20.804688 2.273438 -16.386719 C 2.273438 -10.023438 15.695312 -7.847656 15.695312 -4.121094 C 15.695312 -3.097656 14.703125 -2.570312 12.726562 -2.570312 C 9.859375 -2.570312 8.339844 -3.691406 8.339844 -5.835938 C 8.339844 -6.660156 8.574219 -7.386719 8.96875 -8.109375 C 8.277344 -9.132812 7.023438 -9.757812 5.507812 -9.757812 C 3.035156 -9.757812 1.320312 -8.042969 1.320312 -5.703125 C 1.320312 -1.914062 5.804688 0.59375 11.871094 0.59375 C 18.398438 0.59375 23.277344 -1.714844 23.277344 -6.132812 C 23.277344 -12.5625 9.59375 -14.671875 9.59375 -18.59375 Z M 9.59375 -18.59375 "/></g></g></g><g fill="#373435" fill-opacity="1"><g transform="translate(200.824821, 258.768534)"><g><path d="M 13.453125 -23.671875 C 6.296875 -23.671875 1.320312 -18.761719 1.320312 -11.574219 C 1.320312 -4.386719 6.363281 0.59375 13.550781 0.59375 C 20.773438 0.59375 25.816406 -4.417969 25.816406 -11.507812 C 25.816406 -18.628906 20.707031 -23.707031 13.453125 -23.671875 Z M 14.835938 -2.570312 C 12 -2.175781 9.132812 -5.867188 8.441406 -10.816406 C 7.75 -15.761719 9.460938 -20.078125 12.296875 -20.507812 C 15.167969 -20.902344 18.035156 -17.210938 18.726562 -12.265625 C 19.417969 -7.320312 17.671875 -3 14.835938 -2.570312 Z M 14.835938 -2.570312 "/></g></g></g><g fill="#ed3237" fill-opacity="1"><g transform="translate(64.170646, 284.843859)"><g><path d="M 8 -6.84375 L 5.03125 -6.84375 L 5.03125 -8.59375 C 5.03125 -8.84375 4.882812 -8.96875 4.59375 -8.96875 L 4 -8.96875 C 3.71875 -8.96875 3.578125 -8.84375 3.578125 -8.59375 L 3.578125 -2.328125 C 3.578125 -2.078125 3.71875 -1.953125 4 -1.953125 L 4.59375 -1.953125 C 4.882812 -1.953125 5.03125 -2.078125 5.03125 -2.328125 L 5.03125 -4.015625 L 8 -4.015625 L 8 -2.109375 C 8 -0.703125 7.164062 0 5.5 0 L 3.09375 0 C 1.425781 0 0.59375 -0.703125 0.59375 -2.109375 L 0.59375 -8.828125 C 0.59375 -10.234375 1.425781 -10.9375 3.09375 -10.9375 L 5.5 -10.9375 C 7.164062 -10.9375 8 -10.234375 8 -8.828125 Z M 8 -6.84375 "/></g></g></g><g fill="#ed3237" fill-opacity="1"><g transform="translate(77.753866, 284.843859)"><g><path d="M 3.140625 -10.9375 L 5.65625 -10.9375 C 7.320312 -10.9375 8.15625 -10.234375 8.15625 -8.828125 L 8.15625 -2.109375 C 8.15625 -0.703125 7.320312 0 5.65625 0 L 3.140625 0 C 1.460938 0 0.625 -0.703125 0.625 -2.109375 L 0.625 -8.828125 C 0.625 -10.234375 1.460938 -10.9375 3.140625 -10.9375 Z M 5.171875 -2.5 L 5.171875 -8.4375 C 5.171875 -8.6875 5.03125 -8.8125 4.75 -8.8125 L 4.03125 -8.8125 C 3.75 -8.8125 3.609375 -8.6875 3.609375 -8.4375 L 3.609375 -2.5 C 3.609375 -2.25 3.75 -2.125 4.03125 -2.125 L 4.75 -2.125 C 5.03125 -2.125 5.171875 -2.25 5.171875 -2.5 Z M 5.171875 -2.5 "/></g></g></g><g fill="#ed3237" fill-opacity="1"><g transform="translate(91.694406, 284.843859)"><g><path d="M 5.671875 -10.9375 L 8.390625 -10.9375 L 8.390625 0 L 5.84375 0 L 3.40625 -5.734375 L 3.40625 0 L 0.6875 0 L 0.6875 -10.9375 L 3.234375 -10.9375 L 5.671875 -5.09375 Z M 5.671875 -10.9375 "/></g></g></g><g fill="#ed3237" fill-opacity="1"><g transform="translate(105.924217, 284.843859)"><g><path d="M 5.859375 -10.9375 L 8.953125 -10.9375 L 6.265625 0 L 2.8125 0 L 0.125 -10.9375 L 3.21875 -10.9375 L 4.53125 -3.625 Z M 5.859375 -10.9375 "/></g></g></g><g fill="#ed3237" fill-opacity="1"><g transform="translate(120.154028, 284.843859)"><g><path d="M 3.65625 -2.125 L 7.390625 -2.125 L 7.390625 0 L 0.6875 0 L 0.6875 -10.9375 L 7.234375 -10.9375 L 7.234375 -8.8125 L 3.65625 -8.8125 L 3.65625 -6.578125 L 6.75 -6.578125 L 6.75 -4.4375 L 3.65625 -4.4375 Z M 3.65625 -2.125 "/></g></g></g><g fill="#ed3237" fill-opacity="1"><g transform="translate(132.95453, 284.843859)"><g><path d="M 5.671875 -10.9375 L 8.390625 -10.9375 L 8.390625 0 L 5.84375 0 L 3.40625 -5.734375 L 3.40625 0 L 0.6875 0 L 0.6875 -10.9375 L 3.234375 -10.9375 L 5.671875 -5.09375 Z M 5.671875 -10.9375 "/></g></g></g><g fill="#ed3237" fill-opacity="1"><g transform="translate(147.184342, 284.843859)"><g><path d="M 0.6875 -10.9375 L 3.65625 -10.9375 L 3.65625 0 L 0.6875 0 Z M 0.6875 -10.9375 "/></g></g></g><g fill="#ed3237" fill-opacity="1"><g transform="translate(156.683818, 284.843859)"><g><path d="M 3.65625 -2.125 L 7.390625 -2.125 L 7.390625 0 L 0.6875 0 L 0.6875 -10.9375 L 7.234375 -10.9375 L 7.234375 -8.8125 L 3.65625 -8.8125 L 3.65625 -6.578125 L 6.75 -6.578125 L 6.75 -4.4375 L 3.65625 -4.4375 Z M 3.65625 -2.125 "/></g></g></g><g fill="#ed3237" fill-opacity="1"><g transform="translate(169.48432, 284.843859)"><g><path d="M 5.671875 -10.9375 L 8.390625 -10.9375 L 8.390625 0 L 5.84375 0 L 3.40625 -5.734375 L 3.40625 0 L 0.6875 0 L 0.6875 -10.9375 L 3.234375 -10.9375 L 5.671875 -5.09375 Z M 5.671875 -10.9375 "/></g></g></g><g fill="#ed3237" fill-opacity="1"><g transform="translate(183.714132, 284.843859)"><g><path d="M 7.265625 -10.9375 L 7.265625 -8.8125 L 5.15625 -8.8125 L 5.15625 0 L 2.1875 0 L 2.1875 -8.8125 L 0.078125 -8.8125 L 0.078125 -10.9375 Z M 7.265625 -10.9375 "/></g></g></g><g fill="#ed3237" fill-opacity="1"><g transform="translate(196.225373, 284.843859)"><g/></g></g><g fill="#ed3237" fill-opacity="1"><g transform="translate(204.788998, 284.843859)"><g><path d="M 4.875 -2.5 L 4.875 -4.046875 C 4.875 -4.296875 4.726562 -4.421875 4.4375 -4.421875 L 2.8125 -4.421875 C 1.96875 -4.421875 1.375 -4.601562 1.03125 -4.96875 C 0.6875 -5.34375 0.515625 -5.878906 0.515625 -6.578125 L 0.515625 -8.828125 C 0.515625 -10.234375 1.34375 -10.9375 3 -10.9375 L 5.328125 -10.9375 C 6.984375 -10.9375 7.8125 -10.234375 7.8125 -8.828125 L 7.8125 -7.515625 L 4.84375 -7.515625 L 4.84375 -8.4375 C 4.84375 -8.6875 4.695312 -8.8125 4.40625 -8.8125 L 3.921875 -8.8125 C 3.628906 -8.8125 3.484375 -8.6875 3.484375 -8.4375 L 3.484375 -6.8125 C 3.484375 -6.5625 3.628906 -6.4375 3.921875 -6.4375 L 5.515625 -6.4375 C 6.359375 -6.4375 6.957031 -6.257812 7.3125 -5.90625 C 7.664062 -5.550781 7.84375 -5.035156 7.84375 -4.359375 L 7.84375 -2.109375 C 7.84375 -0.703125 7.015625 0 5.359375 0 L 3.046875 0 C 1.378906 0 0.546875 -0.703125 0.546875 -2.109375 L 0.546875 -3.421875 L 3.53125 -3.421875 L 3.53125 -2.5 C 3.53125 -2.25 3.671875 -2.125 3.953125 -2.125 L 4.4375 -2.125 C 4.726562 -2.125 4.875 -2.25 4.875 -2.5 Z M 4.875 -2.5 "/></g></g></g><g fill="#ed3237" fill-opacity="1"><g transform="translate(218.304149, 284.843859)"><g><path d="M 7.265625 -10.9375 L 7.265625 -8.8125 L 5.15625 -8.8125 L 5.15625 0 L 2.1875 0 L 2.1875 -8.8125 L 0.078125 -8.8125 L 0.078125 -10.9375 Z M 7.265625 -10.9375 "/></g></g></g><g fill="#ed3237" fill-opacity="1"><g transform="translate(230.81539, 284.843859)"><g><path d="M 3.140625 -10.9375 L 5.65625 -10.9375 C 7.320312 -10.9375 8.15625 -10.234375 8.15625 -8.828125 L 8.15625 -2.109375 C 8.15625 -0.703125 7.320312 0 5.65625 0 L 3.140625 0 C 1.460938 0 0.625 -0.703125 0.625 -2.109375 L 0.625 -8.828125 C 0.625 -10.234375 1.460938 -10.9375 3.140625 -10.9375 Z M 5.171875 -2.5 L 5.171875 -8.4375 C 5.171875 -8.6875 5.03125 -8.8125 4.75 -8.8125 L 4.03125 -8.8125 C 3.75 -8.8125 3.609375 -8.6875 3.609375 -8.4375 L 3.609375 -2.5 C 3.609375 -2.25 3.75 -2.125 4.03125 -2.125 L 4.75 -2.125 C 5.03125 -2.125 5.171875 -2.25 5.171875 -2.5 Z M 5.171875 -2.5 "/></g></g></g><g fill="#ed3237" fill-opacity="1"><g transform="translate(244.755929, 284.843859)"><g><path d="M 5.859375 -10.9375 L 8.953125 -10.9375 L 6.265625 0 L 2.8125 0 L 0.125 -10.9375 L 3.21875 -10.9375 L 4.53125 -3.625 Z M 5.859375 -10.9375 "/></g></g></g><g fill="#ed3237" fill-opacity="1"><g transform="translate(258.985741, 284.843859)"><g><path d="M 3.65625 -2.125 L 7.390625 -2.125 L 7.390625 0 L 0.6875 0 L 0.6875 -10.9375 L 7.234375 -10.9375 L 7.234375 -8.8125 L 3.65625 -8.8125 L 3.65625 -6.578125 L 6.75 -6.578125 L 6.75 -4.4375 L 3.65625 -4.4375 Z M 3.65625 -2.125 "/></g></g></g><g fill="#ed3237" fill-opacity="1"><g transform="translate(271.786231, 284.843859)"><g/></g></g><g fill="#ed3237" fill-opacity="1"><g transform="translate(280.349845, 284.843859)"><g><path d="M 3.140625 -10.9375 L 5.65625 -10.9375 C 7.320312 -10.9375 8.15625 -10.234375 8.15625 -8.828125 L 8.15625 -2.109375 C 8.15625 -0.703125 7.320312 0 5.65625 0 L 3.140625 0 C 1.460938 0 0.625 -0.703125 0.625 -2.109375 L 0.625 -8.828125 C 0.625 -10.234375 1.460938 -10.9375 3.140625 -10.9375 Z M 5.171875 -2.5 L 5.171875 -8.4375 C 5.171875 -8.6875 5.03125 -8.8125 4.75 -8.8125 L 4.03125 -8.8125 C 3.75 -8.8125 3.609375 -8.6875 3.609375 -8.4375 L 3.609375 -2.5 C 3.609375 -2.25 3.75 -2.125 4.03125 -2.125 L 4.75 -2.125 C 5.03125 -2.125 5.171875 -2.25 5.171875 -2.5 Z M 5.171875 -2.5 "/></g></g></g><g fill="#ed3237" fill-opacity="1"><g transform="translate(294.290395, 284.843859)"><g><path d="M 0.6875 -10.9375 L 3.65625 -10.9375 L 3.65625 0 L 0.6875 0 Z M 0.6875 -10.9375 "/></g></g></g><g fill="#ed3237" fill-opacity="1"><g transform="translate(303.789861, 284.843859)"><g><path d="M 3.65625 -2.125 L 7.046875 -2.125 L 7.046875 0 L 0.6875 0 L 0.6875 -10.9375 L 3.65625 -10.9375 Z M 3.65625 -2.125 "/></g></g></g><g fill="#f58634" fill-opacity="1"><g transform="translate(117.895599, 218.86696)"><g><path d="M 5.59375 0 L 1 0 L 1 -7.96875 L 5.59375 -7.96875 L 5.59375 -6.59375 L 2.6875 -6.59375 L 2.6875 -4.84375 L 5.390625 -4.84375 L 5.390625 -3.453125 L 2.6875 -3.453125 L 2.6875 -1.390625 L 5.59375 -1.390625 Z M 5.59375 0 "/></g></g></g><g fill="#f58634" fill-opacity="1"><g transform="translate(124.153086, 218.86696)"><g><path d="M 5.125 -1.8125 C 5.125 -1.1875 4.90625 -0.707031 4.46875 -0.375 C 4.039062 -0.0507812 3.394531 0.109375 2.53125 0.109375 C 2.082031 0.109375 1.703125 0.078125 1.390625 0.015625 C 1.078125 -0.046875 0.785156 -0.132812 0.515625 -0.25 L 0.515625 -1.625 C 0.816406 -1.476562 1.160156 -1.351562 1.546875 -1.25 C 1.941406 -1.15625 2.285156 -1.109375 2.578125 -1.109375 C 3.179688 -1.109375 3.484375 -1.28125 3.484375 -1.625 C 3.484375 -1.757812 3.441406 -1.867188 3.359375 -1.953125 C 3.285156 -2.035156 3.148438 -2.128906 2.953125 -2.234375 C 2.753906 -2.335938 2.492188 -2.457031 2.171875 -2.59375 C 1.703125 -2.789062 1.351562 -2.972656 1.125 -3.140625 C 0.90625 -3.304688 0.742188 -3.492188 0.640625 -3.703125 C 0.546875 -3.921875 0.5 -4.191406 0.5 -4.515625 C 0.5 -5.054688 0.707031 -5.472656 1.125 -5.765625 C 1.550781 -6.066406 2.148438 -6.21875 2.921875 -6.21875 C 3.648438 -6.21875 4.363281 -6.054688 5.0625 -5.734375 L 4.5625 -4.53125 C 4.257812 -4.664062 3.972656 -4.773438 3.703125 -4.859375 C 3.441406 -4.941406 3.171875 -4.984375 2.890625 -4.984375 C 2.398438 -4.984375 2.15625 -4.847656 2.15625 -4.578125 C 2.15625 -4.429688 2.234375 -4.300781 2.390625 -4.1875 C 2.546875 -4.082031 2.894531 -3.921875 3.4375 -3.703125 C 3.90625 -3.515625 4.25 -3.335938 4.46875 -3.171875 C 4.695312 -3.003906 4.863281 -2.8125 4.96875 -2.59375 C 5.070312 -2.375 5.125 -2.113281 5.125 -1.8125 Z M 5.125 -1.8125 "/></g></g></g><g fill="#f58634" fill-opacity="1"><g transform="translate(129.70681, 218.86696)"><g><path d="M 3.4375 -1.21875 C 3.726562 -1.21875 4.078125 -1.28125 4.484375 -1.40625 L 4.484375 -0.171875 C 4.078125 0.015625 3.570312 0.109375 2.96875 0.109375 C 2.300781 0.109375 1.8125 -0.0546875 1.5 -0.390625 C 1.195312 -0.734375 1.046875 -1.238281 1.046875 -1.90625 L 1.046875 -4.84375 L 0.25 -4.84375 L 0.25 -5.546875 L 1.171875 -6.109375 L 1.65625 -7.390625 L 2.71875 -7.390625 L 2.71875 -6.09375 L 4.421875 -6.09375 L 4.421875 -4.84375 L 2.71875 -4.84375 L 2.71875 -1.90625 C 2.71875 -1.664062 2.78125 -1.488281 2.90625 -1.375 C 3.039062 -1.269531 3.21875 -1.21875 3.4375 -1.21875 Z M 3.4375 -1.21875 "/></g></g></g><g fill="#f58634" fill-opacity="1"><g transform="translate(134.556771, 218.86696)"><g><path d="M 2.796875 0.109375 C 2.085938 0.109375 1.523438 -0.164062 1.109375 -0.71875 C 0.703125 -1.28125 0.5 -2.050781 0.5 -3.03125 C 0.5 -4.03125 0.707031 -4.8125 1.125 -5.375 C 1.539062 -5.9375 2.113281 -6.21875 2.84375 -6.21875 C 3.613281 -6.21875 4.203125 -5.914062 4.609375 -5.3125 L 4.65625 -5.3125 C 4.570312 -5.769531 4.53125 -6.175781 4.53125 -6.53125 L 4.53125 -8.484375 L 6.203125 -8.484375 L 6.203125 0 L 4.921875 0 L 4.609375 -0.796875 L 4.53125 -0.796875 C 4.15625 -0.191406 3.578125 0.109375 2.796875 0.109375 Z M 3.390625 -1.21875 C 3.816406 -1.21875 4.128906 -1.335938 4.328125 -1.578125 C 4.523438 -1.828125 4.628906 -2.25 4.640625 -2.84375 L 4.640625 -3.03125 C 4.640625 -3.6875 4.539062 -4.15625 4.34375 -4.4375 C 4.144531 -4.71875 3.816406 -4.859375 3.359375 -4.859375 C 2.984375 -4.859375 2.691406 -4.703125 2.484375 -4.390625 C 2.285156 -4.078125 2.1875 -3.617188 2.1875 -3.015625 C 2.1875 -2.410156 2.289062 -1.957031 2.5 -1.65625 C 2.707031 -1.363281 3.003906 -1.21875 3.390625 -1.21875 Z M 3.390625 -1.21875 "/></g></g></g><g fill="#f58634" fill-opacity="1"><g transform="translate(141.619026, 218.86696)"><g/></g></g><g fill="#f58634" fill-opacity="1"><g transform="translate(144.521365, 218.86696)"><g/></g></g><g fill="#f58634" fill-opacity="1"><g transform="translate(147.423704, 218.86696)"><g/></g></g><g fill="#f58634" fill-opacity="1"><g transform="translate(150.326043, 218.86696)"><g/></g></g><g fill="#f58634" fill-opacity="1"><g transform="translate(153.228383, 218.86696)"><g/></g></g><g fill="#f58634" fill-opacity="1"><g transform="translate(156.130722, 218.86696)"><g/></g></g><g fill="#f58634" fill-opacity="1"><g transform="translate(159.033061, 218.86696)"><g/></g></g><g fill="#f58634" fill-opacity="1"><g transform="translate(161.9354, 218.86696)"><g/></g></g><g fill="#f58634" fill-opacity="1"><g transform="translate(164.837739, 218.86696)"><g/></g></g><g fill="#f58634" fill-opacity="1"><g transform="translate(167.740078, 218.86696)"><g/></g></g><g fill="#f58634" fill-opacity="1"><g transform="translate(170.642417, 218.86696)"><g/></g></g><g fill="#f58634" fill-opacity="1"><g transform="translate(173.544756, 218.86696)"><g/></g></g><g fill="#f58634" fill-opacity="1"><g transform="translate(176.447095, 218.86696)"><g/></g></g><g fill="#f58634" fill-opacity="1"><g transform="translate(179.349434, 218.86696)"><g/></g></g><g fill="#f58634" fill-opacity="1"><g transform="translate(182.251773, 218.86696)"><g/></g></g><g fill="#f58634" fill-opacity="1"><g transform="translate(185.154112, 218.86696)"><g/></g></g><g fill="#f58634" fill-opacity="1"><g transform="translate(188.056451, 218.86696)"><g/></g></g><g fill="#f58634" fill-opacity="1"><g transform="translate(190.958791, 218.86696)"><g/></g></g><g fill="#f58634" fill-opacity="1"><g transform="translate(193.86113, 218.86696)"><g/></g></g><g fill="#f58634" fill-opacity="1"><g transform="translate(196.763469, 218.86696)"><g/></g></g><g fill="#f58634" fill-opacity="1"><g transform="translate(199.665808, 218.86696)"><g/></g></g><g fill="#f58634" fill-opacity="1"><g transform="translate(202.568147, 218.86696)"><g/></g></g><g fill="#f58634" fill-opacity="1"><g transform="translate(205.470486, 218.86696)"><g/></g></g><g fill="#f58634" fill-opacity="1"><g transform="translate(208.372825, 218.86696)"><g/></g></g><g fill="#f58634" fill-opacity="1"><g transform="translate(211.275164, 218.86696)"><g/></g></g><g fill="#f58634" fill-opacity="1"><g transform="translate(214.177503, 218.86696)"><g/></g></g><g fill="#f58634" fill-opacity="1"><g transform="translate(217.079842, 218.86696)"><g/></g></g><g fill="#f58634" fill-opacity="1"><g transform="translate(219.982181, 218.86696)"><g/></g></g><g fill="#f58634" fill-opacity="1"><g transform="translate(222.88452, 218.86696)"><g/></g></g><g fill="#f58634" fill-opacity="1"><g transform="translate(225.786859, 218.86696)"><g/></g></g><g fill="#f58634" fill-opacity="1"><g transform="translate(228.689199, 218.86696)"><g/></g></g><g fill="#f58634" fill-opacity="1"><g transform="translate(231.585496, 218.86696)"><g><path d="M 6.015625 0 L 0.453125 0 L 0.453125 -1.171875 L 2.453125 -3.203125 C 3.046875 -3.804688 3.429688 -4.222656 3.609375 -4.453125 C 3.796875 -4.691406 3.925781 -4.910156 4 -5.109375 C 4.082031 -5.304688 4.125 -5.515625 4.125 -5.734375 C 4.125 -6.054688 4.035156 -6.296875 3.859375 -6.453125 C 3.679688 -6.609375 3.445312 -6.6875 3.15625 -6.6875 C 2.84375 -6.6875 2.539062 -6.613281 2.25 -6.46875 C 1.957031 -6.320312 1.65625 -6.117188 1.34375 -5.859375 L 0.421875 -6.953125 C 0.816406 -7.285156 1.144531 -7.519531 1.40625 -7.65625 C 1.664062 -7.789062 1.945312 -7.894531 2.25 -7.96875 C 2.550781 -8.050781 2.890625 -8.09375 3.265625 -8.09375 C 3.765625 -8.09375 4.207031 -8 4.59375 -7.8125 C 4.976562 -7.632812 5.273438 -7.378906 5.484375 -7.046875 C 5.691406 -6.722656 5.796875 -6.347656 5.796875 -5.921875 C 5.796875 -5.554688 5.726562 -5.210938 5.59375 -4.890625 C 5.46875 -4.566406 5.269531 -4.238281 5 -3.90625 C 4.726562 -3.570312 4.253906 -3.085938 3.578125 -2.453125 L 2.546875 -1.5 L 2.546875 -1.421875 L 6.015625 -1.421875 Z M 6.015625 0 "/></g></g></g><g fill="#f58634" fill-opacity="1"><g transform="translate(237.963004, 218.86696)"><g><path d="M 5.984375 -3.984375 C 5.984375 -2.585938 5.753906 -1.554688 5.296875 -0.890625 C 4.835938 -0.222656 4.132812 0.109375 3.1875 0.109375 C 2.269531 0.109375 1.578125 -0.234375 1.109375 -0.921875 C 0.640625 -1.617188 0.40625 -2.640625 0.40625 -3.984375 C 0.40625 -5.390625 0.628906 -6.425781 1.078125 -7.09375 C 1.535156 -7.757812 2.238281 -8.09375 3.1875 -8.09375 C 4.101562 -8.09375 4.796875 -7.742188 5.265625 -7.046875 C 5.742188 -6.347656 5.984375 -5.328125 5.984375 -3.984375 Z M 2.078125 -3.984375 C 2.078125 -3.003906 2.160156 -2.300781 2.328125 -1.875 C 2.492188 -1.457031 2.78125 -1.25 3.1875 -1.25 C 3.582031 -1.25 3.863281 -1.460938 4.03125 -1.890625 C 4.207031 -2.316406 4.296875 -3.015625 4.296875 -3.984375 C 4.296875 -4.960938 4.207031 -5.664062 4.03125 -6.09375 C 3.851562 -6.519531 3.570312 -6.734375 3.1875 -6.734375 C 2.789062 -6.734375 2.503906 -6.519531 2.328125 -6.09375 C 2.160156 -5.664062 2.078125 -4.960938 2.078125 -3.984375 Z M 2.078125 -3.984375 "/></g></g></g><g fill="#f58634" fill-opacity="1"><g transform="translate(244.340512, 218.86696)"><g><path d="M 6.015625 0 L 0.453125 0 L 0.453125 -1.171875 L 2.453125 -3.203125 C 3.046875 -3.804688 3.429688 -4.222656 3.609375 -4.453125 C 3.796875 -4.691406 3.925781 -4.910156 4 -5.109375 C 4.082031 -5.304688 4.125 -5.515625 4.125 -5.734375 C 4.125 -6.054688 4.035156 -6.296875 3.859375 -6.453125 C 3.679688 -6.609375 3.445312 -6.6875 3.15625 -6.6875 C 2.84375 -6.6875 2.539062 -6.613281 2.25 -6.46875 C 1.957031 -6.320312 1.65625 -6.117188 1.34375 -5.859375 L 0.421875 -6.953125 C 0.816406 -7.285156 1.144531 -7.519531 1.40625 -7.65625 C 1.664062 -7.789062 1.945312 -7.894531 2.25 -7.96875 C 2.550781 -8.050781 2.890625 -8.09375 3.265625 -8.09375 C 3.765625 -8.09375 4.207031 -8 4.59375 -7.8125 C 4.976562 -7.632812 5.273438 -7.378906 5.484375 -7.046875 C 5.691406 -6.722656 5.796875 -6.347656 5.796875 -5.921875 C 5.796875 -5.554688 5.726562 -5.210938 5.59375 -4.890625 C 5.46875 -4.566406 5.269531 -4.238281 5 -3.90625 C 4.726562 -3.570312 4.253906 -3.085938 3.578125 -2.453125 L 2.546875 -1.5 L 2.546875 -1.421875 L 6.015625 -1.421875 Z M 6.015625 0 "/></g></g></g><g fill="#f58634" fill-opacity="1"><g transform="translate(250.718021, 218.86696)"><g><path d="M 5.71875 -6.1875 C 5.71875 -5.6875 5.566406 -5.257812 5.265625 -4.90625 C 4.960938 -4.5625 4.535156 -4.328125 3.984375 -4.203125 L 3.984375 -4.171875 C 4.628906 -4.085938 5.117188 -3.890625 5.453125 -3.578125 C 5.785156 -3.265625 5.953125 -2.847656 5.953125 -2.328125 C 5.953125 -1.554688 5.671875 -0.957031 5.109375 -0.53125 C 4.554688 -0.101562 3.765625 0.109375 2.734375 0.109375 C 1.859375 0.109375 1.085938 -0.0351562 0.421875 -0.328125 L 0.421875 -1.75 C 0.734375 -1.59375 1.070312 -1.46875 1.4375 -1.375 C 1.8125 -1.28125 2.179688 -1.234375 2.546875 -1.234375 C 3.097656 -1.234375 3.503906 -1.328125 3.765625 -1.515625 C 4.035156 -1.703125 4.171875 -2.003906 4.171875 -2.421875 C 4.171875 -2.796875 4.019531 -3.0625 3.71875 -3.21875 C 3.414062 -3.375 2.929688 -3.453125 2.265625 -3.453125 L 1.65625 -3.453125 L 1.65625 -4.75 L 2.265625 -4.75 C 2.890625 -4.75 3.34375 -4.828125 3.625 -4.984375 C 3.90625 -5.148438 4.046875 -5.429688 4.046875 -5.828125 C 4.046875 -6.421875 3.671875 -6.71875 2.921875 -6.71875 C 2.660156 -6.71875 2.394531 -6.675781 2.125 -6.59375 C 1.851562 -6.507812 1.550781 -6.359375 1.21875 -6.140625 L 0.4375 -7.296875 C 1.164062 -7.828125 2.03125 -8.09375 3.03125 -8.09375 C 3.863281 -8.09375 4.519531 -7.925781 5 -7.59375 C 5.476562 -7.257812 5.71875 -6.789062 5.71875 -6.1875 Z M 5.71875 -6.1875 "/></g></g></g></svg>